<?xml version="1.0" standalone="no"?>
<!DOCTYPE svg PUBLIC "-//W3C//DTD SVG 20010904//EN"
 "http://www.w3.org/TR/2001/REC-SVG-20010904/DTD/svg10.dtd">
<svg version="1.0" xmlns="http://www.w3.org/2000/svg"
 width="529.000000pt" height="95.000000pt" viewBox="0 0 529.000000 95.000000"
 preserveAspectRatio="xMidYMid meet">

<g transform="translate(0.000000,95.000000) scale(0.100000,-0.100000)"
fill="#A9A6A6" stroke="none">
<path d="M2620 906 l-195 -31 -3 -53 -3 -52 -430 0 -430 0 1 -52 c1 -29 1 -57
1 -62 -1 -5 -23 12 -50 37 -86 81 -195 121 -326 120 -152 -1 -262 -52 -363
-167 l-33 -38 -50 41 c-27 23 -71 59 -97 81 l-48 40 -297 0 -297 0 0 -360 0
-360 195 0 195 0 0 60 0 60 99 0 100 0 63 53 c35 29 70 58 79 65 14 11 20 5
44 -43 57 -118 197 -214 342 -236 143 -21 293 24 393 117 l50 47 0 -62 0 -61
979 0 978 0 74 60 c40 33 78 60 83 60 5 0 42 -27 82 -60 l72 -60 403 0 403 0
33 32 33 32 33 -32 33 -32 249 2 249 3 -94 109 c-52 60 -121 140 -153 177
l-59 68 160 178 160 178 -256 3 -256 2 -34 -34 -35 -34 -29 34 -30 34 -404 0
-405 0 -77 -64 -78 -65 -79 65 -80 64 -317 0 c-175 0 -317 3 -317 8 1 4 1 42
0 85 l-1 77 -32 -1 c-18 -1 -121 -15 -228 -33z m200 -116 l0 -80 338 0 337 -1
89 -73 90 -74 89 74 89 74 378 0 377 0 46 -49 47 -50 47 50 48 50 174 -3 175
-3 -133 -148 -133 -148 49 -56 c26 -32 83 -98 126 -148 l79 -90 -170 -3 -171
-2 -46 49 -46 49 -46 -49 -46 -49 -378 0 -378 0 -89 74 -89 74 -88 -74 -89
-74 -505 0 -504 0 -94 76 -93 76 0 147 0 147 90 74 89 73 3 61 3 60 140 22
c77 12 152 22 168 23 l27 1 0 -80z m-1484 -61 c100 -38 172 -99 220 -189 15
-27 19 -56 19 -130 0 -87 -3 -100 -30 -149 -98 -177 -347 -249 -541 -155 -249
119 -279 423 -58 575 111 76 263 95 390 48z m-670 -96 l94 -78 0 -82 0 -81
-97 -81 -97 -81 -118 0 -118 0 0 -60 0 -60 -135 0 -135 0 0 300 0 300 256 0
256 0 94 -77z m1227 16 l-2 -60 42 37 c23 21 53 48 66 61 23 22 29 23 207 23
101 0 184 -1 184 -3 0 -2 -68 -66 -151 -142 l-150 -139 158 -158 158 -158
-186 0 -186 0 -67 70 c-37 38 -70 70 -72 70 -2 0 -4 -31 -4 -70 l0 -70 -130 0
-130 0 0 300 0 300 133 0 132 0 -2 -61z"/>
<path d="M2633 802 l-103 -16 0 -39 0 -40 53 6 c28 4 85 10 125 13 l72 7 0 43
c0 51 10 49 -147 26z m127 -27 c0 -14 -1 -25 -2 -25 -74 -11 -210 -25 -213
-21 -3 2 -5 12 -5 22 0 13 10 20 33 24 17 3 52 10 77 14 25 5 60 9 78 10 28 1
32 -2 32 -24z"/>
<path d="M2502 658 c-9 -3 -50 -34 -89 -68 l-73 -61 0 -122 1 -122 84 -68 84
-67 216 2 216 3 -51 73 -51 72 -150 0 c-150 0 -150 0 -147 23 3 21 7 22 121
25 l117 3 0 59 0 60 -120 0 -120 0 0 25 0 25 149 0 149 0 51 70 c28 39 51 71
51 73 0 5 -423 1 -438 -5z m367 -68 l-42 -60 -148 0 -149 0 0 -35 0 -35 115 0
115 0 0 -50 0 -50 -116 0 -115 0 3 -37 3 -38 148 -3 147 -3 34 -47 c34 -45 37
-62 13 -62 -7 0 -6 4 3 10 13 8 12 10 -2 10 -10 0 -18 -4 -18 -9 0 -4 -73 -9
-161 -10 -152 -2 -161 -1 -155 16 6 17 5 17 -8 -1 -17 -21 -18 -21 -108 52
l-68 54 0 118 0 117 73 61 72 61 203 1 203 0 -42 -60z"/>
<path d="M3018 655 c-2 -5 -2 -121 0 -257 l3 -248 227 0 227 0 82 67 83 68 -1
125 0 125 -84 68 -84 67 -225 -2 c-141 -2 -227 -7 -228 -13z m530 -66 l72 -61
0 -118 0 -119 -71 -57 c-48 -38 -77 -54 -90 -51 -10 3 -17 1 -13 -4 3 -5 -82
-9 -205 -9 l-210 0 -1 240 -1 240 223 0 223 0 73 -61z"/>
<path d="M3180 405 l0 -125 134 0 c74 0 141 3 150 6 13 5 16 26 16 125 l0 119
-150 0 -150 0 0 -125z m280 5 l0 -110 -135 0 -135 0 0 110 0 110 135 0 135 0
0 -110z"/>
<path d="M3240 410 l0 -60 90 0 90 0 0 60 0 60 -90 0 -90 0 0 -60z"/>
<path d="M3793 603 l-83 -67 0 -126 0 -126 81 -67 81 -67 214 0 c118 0 214 3
214 6 0 3 -21 37 -47 74 l-48 69 -147 1 -148 0 0 25 0 25 113 0 c63 0 116 2
118 4 2 2 2 29 1 60 l-4 56 -114 0 -114 0 0 25 0 25 148 0 147 0 47 67 c26 37
45 70 43 74 -3 4 -98 7 -212 8 l-208 1 -82 -67z m477 41 c0 -3 -17 -30 -37
-59 l-38 -54 -152 -1 -153 0 0 -35 0 -35 120 0 120 0 0 -50 0 -50 -121 0 -120
0 3 -37 3 -38 150 -2 149 -1 28 -38 c16 -21 26 -44 23 -52 -2 -7 -1 -10 4 -7
5 3 13 1 16 -5 7 -12 -357 -13 -387 -1 -9 3 -49 31 -87 61 l-71 55 0 115 0
115 78 62 77 63 198 0 c108 0 197 -3 197 -6z"/>
<path d="M4374 640 c12 -14 64 -71 115 -127 l92 -102 -115 -128 -115 -128 117
-3 117 -3 57 63 58 63 56 -63 56 -62 115 0 114 0 -66 78 c-37 42 -87 101 -112
129 l-45 53 107 119 c59 66 106 123 106 128 -1 4 -49 8 -109 9 l-107 0 -58
-60 -58 -61 -55 60 -56 60 -118 0 -119 0 23 -25z m268 -55 l57 -64 59 65 58
65 96 -3 96 -3 -105 -118 -105 -117 74 -86 c108 -127 117 -138 111 -146 -2 -5
-26 -8 -54 -8 -37 0 -49 4 -49 15 0 17 -16 20 -25 6 -13 -22 -49 -3 -101 51
l-55 58 -61 -66 c-44 -47 -63 -61 -69 -52 -7 10 -9 10 -9 1 0 -9 -18 -13 -56
-13 -41 0 -53 3 -48 13 6 9 4 9 -7 -1 -17 -16 -32 -16 -23 1 5 7 0 6 -11 -3
-40 -32 -6 13 88 120 l99 111 -88 97 c-48 53 -97 107 -108 120 l-19 22 99 0
99 -1 57 -64z"/>
<path d="M2912 546 c-35 -50 -60 -76 -73 -76 -17 0 -19 -7 -19 -60 0 -52 3
-60 18 -60 12 0 39 -28 73 -76 l54 -77 3 107 c1 58 1 154 0 212 l-3 106 -53
-76z"/>
<path d="M4273 541 c-28 -42 -55 -71 -65 -71 -15 0 -18 -10 -18 -60 0 -47 3
-60 15 -60 8 0 40 -34 71 -76 31 -41 57 -74 58 -72 2 2 44 49 95 106 l93 103
-89 96 c-49 53 -94 98 -100 100 -6 2 -33 -28 -60 -66z m157 -132 c0 -6 -22
-33 -48 -61 l-48 -50 -39 56 -38 56 38 56 39 57 48 -52 c26 -29 48 -57 48 -62z"/>
<path d="M1097 699 c-95 -22 -187 -91 -229 -172 -26 -50 -31 -163 -9 -214 l13
-32 78 39 78 39 0 44 c-1 52 20 88 70 119 49 30 133 31 182 2 l35 -21 83 39
c94 45 94 44 9 102 -84 57 -207 79 -310 55z"/>
<path d="M1428 499 l-78 -39 0 -43 c0 -57 -30 -104 -83 -127 -56 -26 -104 -25
-159 3 l-46 23 -81 -41 -82 -41 23 -20 c135 -121 335 -138 480 -40 118 79 166
218 116 335 l-13 29 -77 -39z m86 -11 c13 -52 6 -133 -18 -184 -29 -62 -97
-124 -135 -121 -14 1 -39 -2 -54 -6 -16 -4 -26 -4 -24 0 3 4 -56 6 -130 3
-142 -5 -173 0 -205 37 -17 18 -15 20 47 51 l65 32 33 -20 c71 -42 188 -22
242 41 26 31 41 88 31 114 -4 12 10 23 57 45 76 35 83 36 91 8z"/>
<path d="M1140 482 c-68 -34 -66 -112 4 -146 33 -16 43 -17 77 -7 81 24 89
125 13 157 -43 18 -52 18 -94 -4z m107 -24 c31 -29 30 -71 -3 -97 -54 -43
-134 -15 -134 47 0 32 8 45 35 60 32 18 77 14 102 -10z"/>
<path d="M123 663 c-10 -3 -13 -65 -13 -259 l0 -255 88 3 87 3 3 63 3 62 132
0 132 0 78 63 77 62 0 66 0 66 -77 64 -78 64 -210 2 c-116 1 -216 -1 -222 -4z
m502 -75 l75 -63 0 -55 c-1 -54 -2 -56 -51 -95 -115 -91 -101 -86 -234 -85
-66 1 -126 1 -132 1 -9 -1 -13 -19 -13 -55 0 -47 -3 -54 -22 -60 -40 -10 -88
-7 -88 7 0 9 -3 8 -9 -2 -5 -7 -11 -9 -14 -4 -4 6 -9 114 -13 242 l-7 231 217
0 217 0 74 -62z"/>
<path d="M270 470 l0 -70 140 0 140 0 0 70 0 70 -140 0 -140 0 0 -70z m270 5
l0 -55 -125 0 -125 0 0 55 0 55 125 0 125 0 0 -55z"/>
<path d="M340 473 c0 -9 22 -13 75 -13 98 0 97 17 0 22 -55 2 -75 0 -75 -9z"/>
<path d="M1693 663 l-23 -4 0 -255 0 -254 90 0 90 0 0 95 c0 72 3 95 13 95 8
0 55 -43 106 -95 l92 -95 117 0 117 0 -138 138 -137 137 109 98 c60 54 118
109 130 121 l21 22 -119 1 -119 0 -83 -83 c-46 -46 -89 -84 -96 -84 -10 0 -13
22 -13 80 l0 80 -47 0 c-27 0 -57 2 -68 4 -11 2 -30 2 -42 -1z m142 -95 c0
-115 12 -115 124 -4 l87 87 97 -3 96 -3 -120 -109 -120 -110 112 -112 c63 -63
109 -117 105 -123 -4 -7 -1 -9 7 -5 8 3 18 1 22 -5 8 -14 -21 -14 -47 0 -11 6
-18 7 -15 2 9 -15 -93 -15 -111 -1 -13 11 -14 11 -8 -2 5 -8 -34 27 -86 78
-75 74 -100 93 -119 90 -23 -3 -24 -8 -29 -87 l-5 -84 -45 1 c-25 0 -55 0 -67
1 l-23 1 0 235 0 235 73 0 72 0 0 -82z"/>
</g>
</svg>
