<?xml version="1.0" standalone="no"?>
<!DOCTYPE svg PUBLIC "-//W3C//DTD SVG 20010904//EN"
 "http://www.w3.org/TR/2001/REC-SVG-20010904/DTD/svg10.dtd">
<svg version="1.0" xmlns="http://www.w3.org/2000/svg"
 width="353.000000pt" height="143.000000pt" viewBox="0 0 353.000000 143.000000"
 preserveAspectRatio="xMidYMid meet">

<g transform="translate(0.000000,143.000000) scale(0.100000,-0.100000)"
fill="#FFFFFF" stroke="none">
<path d="M1055 1363 c-71 -30 -137 -61 -146 -69 -8 -8 -21 -14 -27 -14 -6 0
-16 -26 -22 -57 -7 -32 -15 -75 -20 -96 -9 -41 -12 -39 48 -22 19 5 22 3 22
-19 0 -24 -2 -24 -63 -24 -35 0 -79 -7 -101 -16 -21 -9 -42 -16 -46 -16 -4 0
-4 21 1 46 14 75 -24 144 -106 187 -34 19 -56 22 -145 21 -110 -1 -158 -10
-333 -67 -98 -31 -98 -31 -91 -60 3 -17 2 -32 -5 -36 -7 -4 3 -44 29 -114 53
-144 56 -149 87 -145 25 3 28 -3 99 -207 40 -115 74 -220 74 -232 0 -13 4 -23
9 -23 5 0 12 -11 15 -25 3 -13 11 -36 16 -50 l10 -26 35 27 35 26 17 -21 c10
-12 28 -23 41 -24 19 -1 22 -5 16 -22 -14 -43 -16 -96 -4 -110 7 -8 31 -20 54
-27 22 -6 53 -24 68 -40 15 -15 36 -28 48 -28 29 0 60 18 60 34 0 7 20 19 45
26 25 7 48 17 51 22 3 4 9 6 14 3 5 -3 3 10 -5 29 -8 20 -15 38 -15 40 0 3 19
-4 43 -14 23 -11 49 -20 58 -20 8 0 25 -14 37 -30 32 -43 85 -39 103 6 5 14
17 24 28 24 30 0 91 32 91 47 0 21 28 15 35 -8 12 -38 88 -45 109 -10 4 6 22
3 49 -9 23 -11 49 -20 58 -20 8 0 25 -13 37 -30 32 -43 85 -39 103 6 5 14 17
24 28 24 11 0 36 8 56 17 33 16 35 20 35 64 0 41 2 47 19 42 10 -2 28 -18 40
-34 32 -42 75 -39 100 9 6 12 21 22 33 22 20 0 20 -1 5 -18 -22 -24 -47 -86
-47 -116 0 -19 10 -29 43 -45 24 -12 50 -21 58 -21 9 0 25 -13 37 -30 30 -40
69 -40 105 0 15 17 35 30 45 30 30 0 33 11 13 44 -10 17 -22 41 -25 53 l-7 23
43 -20 c24 -11 50 -20 59 -20 8 0 25 -13 37 -30 33 -43 76 -40 101 7 6 13 20
23 31 23 11 0 35 7 53 16 l34 16 -33 50 c-47 69 -45 82 9 58 23 -11 50 -20 60
-20 10 0 22 -11 26 -24 17 -44 70 -49 100 -9 24 29 121 68 121 48 0 -21 -45
-79 -79 -102 -22 -15 -49 -23 -77 -23 -33 0 -44 -4 -44 -15 0 -16 71 -54 102
-55 10 0 23 -10 29 -22 16 -30 28 -38 61 -38 18 0 33 8 44 25 9 14 28 28 43
32 61 14 81 32 81 69 0 33 2 36 23 30 12 -3 25 -6 30 -6 4 0 7 -6 7 -14 0 -43
73 -52 105 -12 11 14 29 26 39 26 13 0 16 5 11 18 -4 9 -10 25 -13 35 -5 18
-3 18 24 4 16 -8 43 -18 60 -21 19 -4 35 -16 42 -30 14 -31 57 -41 88 -21 13
8 24 22 24 30 0 8 8 15 18 15 9 0 37 9 61 20 l44 20 -6 45 c-5 35 -3 45 8 45
7 0 -43 75 -112 166 l-125 165 55 72 c31 40 94 121 141 182 46 60 84 110 83
111 -1 1 -78 -2 -171 -7 -137 -6 -171 -11 -178 -23 -5 -9 -14 -16 -21 -16 -7
0 -25 -20 -42 -45 -16 -24 -32 -45 -35 -45 -3 0 -25 27 -49 59 l-43 59 -71 6
c-125 10 -267 12 -267 5 0 -5 6 -11 13 -16 8 -5 1 -10 -21 -13 l-32 -5 45 -58
c49 -61 48 -62 -20 -70 -22 -2 -62 -15 -88 -27 -26 -12 -49 -21 -50 -19 -2 2
-8 27 -15 54 -30 120 -86 191 -171 215 -59 16 -186 12 -285 -11 l-92 -21 -79
36 c-46 21 -81 32 -83 26 -2 -5 -9 -10 -15 -10 -14 0 -113 -176 -109 -192 2
-7 -10 -9 -35 -5 -21 4 -81 12 -133 18 l-96 12 -67 -37 c-38 -21 -70 -37 -71
-35 -2 2 -9 94 -15 204 -13 222 -21 295 -30 294 -3 0 -64 -25 -136 -56z m119
-35 c3 -24 11 -136 17 -250 7 -115 16 -208 22 -208 5 0 46 21 90 46 l82 45 85
-11 c47 -7 91 -16 98 -19 9 -5 -26 -37 -102 -95 -64 -48 -118 -91 -121 -96 -3
-5 20 -28 51 -52 50 -38 59 -50 76 -105 14 -49 28 -70 63 -101 35 -31 45 -46
45 -71 0 -17 -3 -31 -6 -31 -4 0 -284 197 -332 234 -11 8 -12 -9 -7 -96 l8
-105 -102 -7 c-56 -4 -105 -5 -110 -2 -4 3 -11 57 -15 121 -7 111 -7 117 19
169 49 101 40 240 -20 296 -20 19 -25 33 -25 70 0 26 -3 62 -6 80 -6 29 -10
31 -36 28 l-30 -5 7 45 c4 24 9 50 12 58 4 11 204 103 225 104 4 0 9 -19 12
-42z m-599 -92 c17 -7 45 -30 64 -51 30 -34 33 -43 28 -82 -6 -56 -55 -128
-160 -237 l-78 -81 39 -138 40 -138 -54 -40 c-29 -21 -57 -39 -62 -39 -8 0
-103 260 -180 490 -14 41 -26 77 -28 79 -2 2 -12 -7 -23 -20 -11 -13 -21 -22
-24 -19 -7 8 -77 203 -74 206 8 8 258 76 307 84 65 10 162 4 205 -14z m1268
-112 l52 -27 -70 -63 c-71 -66 -88 -73 -119 -51 -17 12 -15 18 25 90 24 42 47
77 51 77 5 0 32 -12 61 -26z m473 -23 c50 -23 77 -56 104 -129 39 -104 40
-130 6 -197 -27 -53 -31 -71 -33 -152 -1 -78 -5 -96 -24 -122 -24 -32 -76 -72
-119 -90 -28 -13 -232 -51 -241 -45 -3 2 -11 65 -18 141 -7 76 -16 165 -21
198 -5 33 -12 88 -16 123 -6 59 -7 62 -21 43 -8 -12 -18 -21 -23 -21 -14 0
-22 38 -12 57 7 12 6 20 -5 28 -8 6 -19 30 -24 55 -13 59 2 73 121 104 122 32
264 35 326 7z m609 -61 c29 0 39 -9 93 -80 l60 -81 58 80 59 79 118 7 c65 4
121 4 124 1 3 -3 -46 -72 -109 -153 -63 -82 -118 -154 -122 -162 -5 -8 28 -59
98 -152 58 -77 106 -144 106 -150 0 -7 -11 -9 -31 -5 -17 3 -69 6 -114 6 l-82
0 -53 69 -53 70 -49 -65 c-27 -36 -55 -67 -61 -69 -26 -8 -227 -11 -227 -3 0
4 6 8 13 8 30 0 118 54 132 80 12 24 12 30 0 46 -21 28 -19 35 30 98 l45 58
-25 30 c-16 19 -23 37 -20 49 4 13 -7 28 -43 56 -26 21 -70 67 -98 102 -78
102 -80 95 26 88 51 -4 108 -7 125 -7z m-1988 -34 c69 -32 95 -81 95 -176 0
-81 -17 -124 -73 -185 -150 -162 -357 -105 -376 104 -7 76 10 130 57 184 82
93 194 121 297 73z m896 -77 c20 -5 37 -14 37 -20 0 -5 -32 -72 -70 -150 -47
-93 -65 -137 -53 -130 28 14 61 53 72 85 13 33 21 31 86 -16 57 -42 58 -65 4
-119 -75 -75 -227 -127 -312 -105 -29 7 -76 52 -89 86 -35 91 -26 209 19 268
67 88 197 132 306 101z m977 -64 c26 -13 53 -31 60 -40 13 -15 11 -20 -15 -43
-98 -83 -206 -192 -191 -192 25 0 56 18 92 52 l31 29 41 -66 c41 -65 41 -66
22 -85 -71 -71 -267 -89 -363 -32 -74 43 -92 151 -43 259 32 69 49 89 98 114
86 44 186 45 268 4z m-1340 -80 c0 -6 -30 -67 -35 -73 -2 -2 -13 2 -26 8 l-23
13 35 28 c33 27 49 35 49 24z m390 -5 c0 -5 11 -12 25 -16 26 -6 35 -24 13
-24 -14 1 -58 34 -58 44 0 3 5 6 10 6 6 0 10 -4 10 -10z m-1342 -69 c1 -27 6
-61 12 -75 7 -20 6 -26 -4 -26 -19 0 -50 118 -35 136 19 23 25 16 27 -35z
m2340 -1 c10 -16 10 -24 0 -40 -16 -26 -22 -25 -41 4 -14 21 -14 25 1 40 21
21 25 20 40 -4z m-928 -186 c0 -8 -5 -12 -10 -9 -6 4 -8 11 -5 16 9 14 15 11
15 -7z m-1162 -95 c16 -43 80 -52 109 -15 10 13 29 27 41 30 22 7 22 5 21 -48
-2 -47 -7 -60 -32 -86 -34 -35 -62 -36 -61 -2 1 24 -11 30 -19 10 -4 -9 -8
-10 -14 -2 -4 5 -29 18 -55 28 -25 9 -52 23 -58 31 -6 7 -20 12 -32 10 -16 -3
-18 -2 -8 10 8 10 8 19 1 34 -24 44 -15 49 47 29 31 -11 59 -24 60 -29z m76
45 c18 -7 22 -49 5 -59 -5 -4 -21 -4 -35 -1 -26 7 -32 34 -12 54 14 14 20 14
42 6z m1552 -51 c-10 -10 -19 5 -10 18 6 11 8 11 12 0 2 -7 1 -15 -2 -18z m54
-13 c13 -8 13 -10 -2 -10 -9 0 -20 5 -23 10 -8 13 5 13 25 0z m-1920 -50 c0
-21 -40 -37 -59 -25 -17 10 -13 36 6 50 23 17 53 2 53 -25z m909 6 c10 -12 9
-20 -6 -40 -23 -31 -57 -51 -73 -41 -15 10 -6 58 17 89 19 25 37 23 62 -8z
m-794 -16 c14 -22 -83 -130 -116 -130 -19 0 -21 4 -16 36 7 42 20 60 62 86 34
20 61 23 70 8z m2271 -16 c-28 -25 -30 -25 -43 -8 -21 28 -16 34 30 34 l42 -1
-29 -25z m251 15 c-14 -8 -22 -8 -30 0 -8 8 -3 11 19 11 25 -1 27 -2 11 -11z
m-1339 -26 c5 -31 -28 -47 -56 -27 -18 12 -20 19 -11 35 15 28 63 22 67 -8z
m787 7 c8 -26 -1 -40 -29 -40 -31 0 -47 19 -35 42 13 25 56 24 64 -2z m-662
-42 c4 -26 -1 -39 -21 -60 -28 -30 -57 -36 -65 -15 -7 19 27 93 49 105 25 14
31 8 37 -30z m222 2 c-3 -5 -13 -10 -21 -10 -8 0 -14 5 -14 10 0 6 9 10 21 10
11 0 17 -4 14 -10z m-880 -30 c0 -20 -6 -26 -26 -28 -28 -3 -43 16 -32 44 3 9
15 14 32 12 20 -2 26 -8 26 -28z m2025 15 c16 -20 -3 -45 -35 -45 -25 0 -38
21 -29 45 4 8 16 15 29 15 12 0 28 -7 35 -15z m-262 -48 c-2 -17 -10 -22 -33
-22 -35 0 -47 31 -20 51 25 18 57 0 53 -29z m-2019 -21 c5 -27 -26 -48 -50
-35 -19 10 -25 39 -12 53 14 14 58 1 62 -18z m509 -3 c4 -28 -32 -50 -54 -32
-15 12 -19 41 -7 53 16 15 58 1 61 -21z m780 0 c5 -31 -28 -47 -56 -27 -18 12
-20 19 -11 35 15 28 63 22 67 -8z m-1625 -55 c13 -20 -6 -48 -34 -48 -28 0
-43 35 -23 55 19 19 43 16 57 -7z m2051 16 c24 -9 20 -51 -4 -59 -37 -12 -64
27 -38 53 14 14 20 14 42 6z m-695 -28 c25 -30 -24 -71 -54 -46 -18 15 -19 32
-3 48 16 16 43 15 57 -2z"/>
<path d="M375 1046 c-17 -12 -17 -17 -5 -62 7 -27 16 -53 20 -57 9 -10 100 99
100 119 0 19 -89 19 -115 0z"/>
<path d="M2136 941 c-3 -4 -1 -77 4 -162 5 -85 10 -167 10 -182 l0 -28 40 22
c23 13 49 37 60 54 41 66 34 272 -10 295 -23 12 -97 13 -104 1z"/>
<path d="M804 930 c-42 -27 -61 -72 -45 -106 15 -33 72 -57 106 -44 31 12 65
65 65 103 l0 29 -26 -31 c-31 -37 -60 -40 -76 -6 -9 19 -8 29 6 50 20 30 12
31 -30 5z"/>
<path d="M1636 779 c-21 -16 -26 -29 -26 -62 0 -39 13 -77 23 -67 5 6 67 141
67 146 0 12 -41 1 -64 -17z"/>
<path d="M2610 773 c-28 -10 -50 -48 -50 -88 l0 -39 60 59 c32 32 57 62 54 67
-6 9 -40 10 -64 1z"/>
</g>
</svg>
