<?xml version="1.0" standalone="no"?>
<!DOCTYPE svg PUBLIC "-//W3C//DTD SVG 20010904//EN"
 "http://www.w3.org/TR/2001/REC-SVG-20010904/DTD/svg10.dtd">
<svg version="1.0" xmlns="http://www.w3.org/2000/svg"
 width="225.000000pt" height="225.000000pt" viewBox="0 0 225.000000 225.000000"
 preserveAspectRatio="xMidYMid meet">

<g transform="translate(0.000000,225.000000) scale(0.100000,-0.100000)"
fill="#000000" stroke="none">
<path d="M703 2236 c-335 -64 -586 -295 -674 -621 -28 -103 -31 -305 -6 -408
38 -153 119 -296 229 -404 80 -79 125 -112 213 -156 277 -138 611 -117 861 54
l41 28 27 -28 c24 -25 25 -29 11 -41 -36 -30 -19 -52 278 -347 314 -312 327
-322 411 -309 77 13 139 75 152 152 13 84 3 97 -309 412 -295 296 -317 313
-347 277 -12 -14 -16 -13 -41 11 l-28 27 30 43 c46 67 96 180 120 269 29 112
29 298 0 410 -25 93 -81 217 -128 284 -115 162 -305 291 -495 336 -92 22 -259
27 -345 11z m299 -91 c151 -31 270 -97 383 -210 160 -160 235 -356 222 -575
-8 -119 -27 -193 -78 -295 -96 -194 -279 -345 -484 -400 -192 -51 -413 -19
-593 86 -73 44 -207 178 -251 251 -239 408 -77 913 354 1101 125 54 310 72
447 42z m493 -1355 c18 -19 18 -22 2 -37 -16 -16 -18 -16 -38 4 -23 22 -20 53
4 53 8 0 22 -9 32 -20z m665 -604 c0 -53 -43 -96 -96 -96 -36 0 -50 12 -306
267 l-268 268 67 67 68 68 267 -268 c256 -256 268 -269 268 -306z"/>
<path d="M755 2060 c-135 -18 -272 -88 -375 -190 -183 -184 -244 -454 -156
-696 73 -201 251 -363 456 -415 69 -18 103 -21 199 -17 123 5 168 17 281 71
90 44 233 187 277 277 54 113 66 158 71 281 6 145 -17 247 -81 357 -102 180
-283 302 -491 331 -85 12 -94 12 -181 1z m216 -94 c217 -46 398 -230 444 -451
27 -130 11 -248 -51 -375 -74 -149 -231 -270 -399 -305 -88 -19 -142 -18 -230
0 -223 47 -404 226 -451 444 -87 411 276 774 687 687z"/>
<path d="M733 1905 c-74 -16 -168 -64 -225 -115 -34 -30 -40 -40 -35 -62 11
-43 39 -40 111 12 89 65 166 90 278 90 77 0 89 2 98 20 33 62 -74 88 -227 55z"/>
<path d="M1058 1824 c-11 -25 -9 -29 32 -65 25 -22 57 -46 72 -54 24 -13 29
-13 48 3 32 26 19 54 -44 102 -62 47 -92 51 -108 14z"/>
<path d="M488 1099 c-32 -18 -22 -55 25 -92 39 -32 79 -57 91 -57 12 0 36 33
36 50 0 18 -105 110 -125 110 -5 -1 -18 -5 -27 -11z"/>
<path d="M1129 1074 c-84 -70 -178 -104 -290 -104 -70 0 -94 -13 -87 -47 17
-88 308 -31 436 86 45 42 51 61 26 85 -23 23 -37 20 -85 -20z"/>
</g>
</svg>
